<mxfile host="app.diagrams.net" agent="Mozilla/5.0 (Windows NT 10.0; Win64; x64) AppleWebKit/537.36 (KHTML, like Gecko) Chrome/133.0.0.0 Safari/537.36" version="26.0.14">
  <diagram name="Page-1" id="uuYwZ1rbGrdzh6iocPFt">
    <mxGraphModel dx="1713" dy="4464" grid="0" gridSize="10" guides="1" tooltips="1" connect="1" arrows="1" fold="1" page="0" pageScale="1" pageWidth="850" pageHeight="1100" math="0" shadow="0">
      <root>
        <mxCell id="0" />
        <mxCell id="1" parent="0" />
        <mxCell id="N3lngPtNNW4ioqjcJuvQ-5" value="" style="endArrow=classic;html=1;rounded=0;" parent="1" target="N3lngPtNNW4ioqjcJuvQ-6" edge="1" source="N3lngPtNNW4ioqjcJuvQ-95">
          <mxGeometry width="50" height="50" relative="1" as="geometry">
            <mxPoint x="104" y="-3506" as="sourcePoint" />
            <mxPoint x="104" y="-3446" as="targetPoint" />
          </mxGeometry>
        </mxCell>
        <mxCell id="N3lngPtNNW4ioqjcJuvQ-56" value="" style="edgeStyle=orthogonalEdgeStyle;rounded=0;orthogonalLoop=1;jettySize=auto;html=1;" parent="1" source="N3lngPtNNW4ioqjcJuvQ-6" target="N3lngPtNNW4ioqjcJuvQ-9" edge="1">
          <mxGeometry relative="1" as="geometry" />
        </mxCell>
        <mxCell id="N3lngPtNNW4ioqjcJuvQ-6" value="Upload Mp3 File" style="rounded=0;whiteSpace=wrap;html=1;" parent="1" vertex="1">
          <mxGeometry x="54" y="-3359" width="100" height="40" as="geometry" />
        </mxCell>
        <mxCell id="6D_3fHBWP71r2AAPZ6jX-4" style="edgeStyle=orthogonalEdgeStyle;rounded=0;orthogonalLoop=1;jettySize=auto;html=1;exitX=0.5;exitY=1;exitDx=0;exitDy=0;entryX=0.5;entryY=0;entryDx=0;entryDy=0;" edge="1" parent="1" source="N3lngPtNNW4ioqjcJuvQ-9" target="N3lngPtNNW4ioqjcJuvQ-11">
          <mxGeometry relative="1" as="geometry" />
        </mxCell>
        <mxCell id="N3lngPtNNW4ioqjcJuvQ-9" value="Apply STFT and MFCC" style="rounded=0;whiteSpace=wrap;html=1;" parent="1" vertex="1">
          <mxGeometry x="54" y="-3281" width="100" height="40" as="geometry" />
        </mxCell>
        <mxCell id="6D_3fHBWP71r2AAPZ6jX-5" style="edgeStyle=orthogonalEdgeStyle;rounded=0;orthogonalLoop=1;jettySize=auto;html=1;exitX=0.5;exitY=1;exitDx=0;exitDy=0;entryX=0.5;entryY=0;entryDx=0;entryDy=0;" edge="1" parent="1" source="N3lngPtNNW4ioqjcJuvQ-11" target="N3lngPtNNW4ioqjcJuvQ-18">
          <mxGeometry relative="1" as="geometry" />
        </mxCell>
        <mxCell id="N3lngPtNNW4ioqjcJuvQ-11" value="Generate Spectrogram&lt;span style=&quot;color: rgba(0, 0, 0, 0); font-family: monospace; font-size: 0px; text-align: start; text-wrap-mode: nowrap;&quot;&gt;%3CmxGraphModel%3E%3Croot%3E%3CmxCell%20id%3D%220%22%2F%3E%3CmxCell%20id%3D%221%22%20parent%3D%220%22%2F%3E%3CmxCell%20id%3D%222%22%20value%3D%22Upload%20Mp3%20File%22%20style%3D%22rounded%3D0%3BwhiteSpace%3Dwrap%3Bhtml%3D1%3B%22%20vertex%3D%221%22%20parent%3D%221%22%3E%3CmxGeometry%20x%3D%22390%22%20y%3D%22-360%22%20width%3D%22100%22%20height%3D%2240%22%20as%3D%22geometry%22%2F%3E%3C%2FmxCell%3E%3C%2Froot%3E%3C%2FmxGraphModel%3E&lt;/span&gt;" style="rounded=0;whiteSpace=wrap;html=1;" parent="1" vertex="1">
          <mxGeometry x="54" y="-3205" width="100" height="40" as="geometry" />
        </mxCell>
        <mxCell id="N3lngPtNNW4ioqjcJuvQ-18" value="Is Audio Sleep Conducive?" style="rhombus;whiteSpace=wrap;html=1;" parent="1" vertex="1">
          <mxGeometry x="9" y="-3123" width="190" height="80" as="geometry" />
        </mxCell>
        <mxCell id="N3lngPtNNW4ioqjcJuvQ-19" value="" style="endArrow=classic;html=1;rounded=0;" parent="1" source="N3lngPtNNW4ioqjcJuvQ-18" edge="1">
          <mxGeometry width="50" height="50" relative="1" as="geometry">
            <mxPoint x="-61.710678118654755" y="-3033" as="sourcePoint" />
            <mxPoint x="-61.710678118654755" y="-3083" as="targetPoint" />
          </mxGeometry>
        </mxCell>
        <mxCell id="N3lngPtNNW4ioqjcJuvQ-20" value="" style="endArrow=classic;html=1;rounded=0;" parent="1" source="N3lngPtNNW4ioqjcJuvQ-18" edge="1">
          <mxGeometry width="50" height="50" relative="1" as="geometry">
            <mxPoint x="199.00000000000006" y="-3033" as="sourcePoint" />
            <mxPoint x="269.71067811865487" y="-3083" as="targetPoint" />
          </mxGeometry>
        </mxCell>
        <mxCell id="N3lngPtNNW4ioqjcJuvQ-25" value="Flagged as non-sleep conducive&amp;nbsp;" style="rounded=0;whiteSpace=wrap;html=1;" parent="1" vertex="1">
          <mxGeometry x="-165.99999999999997" y="-3103" width="100" height="40" as="geometry" />
        </mxCell>
        <mxCell id="N3lngPtNNW4ioqjcJuvQ-26" value="Add to Sleep Conducive Playlist" style="rounded=0;whiteSpace=wrap;html=1;" parent="1" vertex="1">
          <mxGeometry x="274" y="-3103" width="100" height="40" as="geometry" />
        </mxCell>
        <mxCell id="N3lngPtNNW4ioqjcJuvQ-57" value="Recommendation of new songs to add to the playlist based on similar audio features&amp;nbsp;&amp;nbsp;" style="rhombus;whiteSpace=wrap;html=1;" parent="1" vertex="1">
          <mxGeometry x="619" y="-3125.5" width="130" height="85" as="geometry" />
        </mxCell>
        <mxCell id="N3lngPtNNW4ioqjcJuvQ-60" value="None Added Proceed with the original list&amp;nbsp;" style="rounded=0;whiteSpace=wrap;html=1;" parent="1" vertex="1">
          <mxGeometry x="758" y="-3009" width="120" height="60" as="geometry" />
        </mxCell>
        <mxCell id="N3lngPtNNW4ioqjcJuvQ-61" value="" style="endArrow=classic;html=1;rounded=0;entryX=1;entryY=0.5;entryDx=0;entryDy=0;" parent="1" source="N3lngPtNNW4ioqjcJuvQ-57" target="N3lngPtNNW4ioqjcJuvQ-93" edge="1">
          <mxGeometry width="50" height="50" relative="1" as="geometry">
            <mxPoint x="454" y="-2937" as="sourcePoint" />
            <mxPoint x="535" y="-3007" as="targetPoint" />
          </mxGeometry>
        </mxCell>
        <mxCell id="N3lngPtNNW4ioqjcJuvQ-62" value="" style="endArrow=classic;html=1;rounded=0;exitX=1;exitY=1;exitDx=0;exitDy=0;entryX=0.5;entryY=0;entryDx=0;entryDy=0;" parent="1" source="N3lngPtNNW4ioqjcJuvQ-57" target="N3lngPtNNW4ioqjcJuvQ-60" edge="1">
          <mxGeometry width="50" height="50" relative="1" as="geometry">
            <mxPoint x="454" y="-2937" as="sourcePoint" />
            <mxPoint x="504" y="-2987" as="targetPoint" />
          </mxGeometry>
        </mxCell>
        <mxCell id="N3lngPtNNW4ioqjcJuvQ-65" value="Generate Playlist&amp;nbsp;" style="ellipse;whiteSpace=wrap;html=1;aspect=fixed;" parent="1" vertex="1">
          <mxGeometry x="468" y="-2915" width="80" height="80" as="geometry" />
        </mxCell>
        <mxCell id="N3lngPtNNW4ioqjcJuvQ-71" value="" style="endArrow=classic;html=1;rounded=0;exitX=0.5;exitY=1;exitDx=0;exitDy=0;entryX=0.5;entryY=0;entryDx=0;entryDy=0;" parent="1" source="N3lngPtNNW4ioqjcJuvQ-65" target="N3lngPtNNW4ioqjcJuvQ-72" edge="1">
          <mxGeometry width="50" height="50" relative="1" as="geometry">
            <mxPoint x="101" y="-2934" as="sourcePoint" />
            <mxPoint x="330" y="-2720" as="targetPoint" />
          </mxGeometry>
        </mxCell>
        <mxCell id="N3lngPtNNW4ioqjcJuvQ-72" value="End" style="rounded=0;whiteSpace=wrap;html=1;" parent="1" vertex="1">
          <mxGeometry x="448" y="-2796" width="120" height="60" as="geometry" />
        </mxCell>
        <mxCell id="N3lngPtNNW4ioqjcJuvQ-74" value="" style="endArrow=none;html=1;rounded=0;entryX=0.5;entryY=1;entryDx=0;entryDy=0;" parent="1" target="N3lngPtNNW4ioqjcJuvQ-25" edge="1">
          <mxGeometry width="50" height="50" relative="1" as="geometry">
            <mxPoint x="-117" y="-2770" as="sourcePoint" />
            <mxPoint x="-116" y="-2953" as="targetPoint" />
          </mxGeometry>
        </mxCell>
        <mxCell id="N3lngPtNNW4ioqjcJuvQ-75" value="" style="endArrow=classic;html=1;rounded=0;entryX=0;entryY=0.5;entryDx=0;entryDy=0;" parent="1" target="N3lngPtNNW4ioqjcJuvQ-72" edge="1">
          <mxGeometry width="50" height="50" relative="1" as="geometry">
            <mxPoint x="-117" y="-2770" as="sourcePoint" />
            <mxPoint x="713" y="-2847" as="targetPoint" />
          </mxGeometry>
        </mxCell>
        <mxCell id="N3lngPtNNW4ioqjcJuvQ-77" value="" style="endArrow=none;html=1;rounded=0;entryX=1;entryY=0.5;entryDx=0;entryDy=0;" parent="1" target="N3lngPtNNW4ioqjcJuvQ-9" edge="1">
          <mxGeometry width="50" height="50" relative="1" as="geometry">
            <mxPoint x="682" y="-3269" as="sourcePoint" />
            <mxPoint x="433" y="-3126" as="targetPoint" />
          </mxGeometry>
        </mxCell>
        <mxCell id="N3lngPtNNW4ioqjcJuvQ-78" value="" style="endArrow=classic;html=1;rounded=0;entryX=0.5;entryY=0;entryDx=0;entryDy=0;" parent="1" target="N3lngPtNNW4ioqjcJuvQ-57" edge="1">
          <mxGeometry width="50" height="50" relative="1" as="geometry">
            <mxPoint x="681" y="-3270" as="sourcePoint" />
            <mxPoint x="433" y="-3126" as="targetPoint" />
          </mxGeometry>
        </mxCell>
        <mxCell id="N3lngPtNNW4ioqjcJuvQ-79" value="&lt;span style=&quot;color: rgb(0, 0, 0); font-family: Helvetica; font-size: 12px; font-style: normal; font-variant-ligatures: normal; font-variant-caps: normal; font-weight: 400; letter-spacing: normal; orphans: 2; text-align: center; text-indent: 0px; text-transform: none; widows: 2; word-spacing: 0px; -webkit-text-stroke-width: 0px; white-space: normal; background-color: rgb(255, 255, 255); text-decoration-thickness: initial; text-decoration-style: initial; text-decoration-color: initial; display: inline !important; float: none;&quot;&gt;No&lt;/span&gt;" style="text;whiteSpace=wrap;html=1;" parent="1" vertex="1">
          <mxGeometry x="-31.003333333333487" y="-3108.996666666667" width="43" height="36" as="geometry" />
        </mxCell>
        <mxCell id="N3lngPtNNW4ioqjcJuvQ-80" value="&lt;span style=&quot;color: rgb(0, 0, 0); font-family: Helvetica; font-size: 12px; font-style: normal; font-variant-ligatures: normal; font-variant-caps: normal; font-weight: 400; letter-spacing: normal; orphans: 2; text-align: center; text-indent: 0px; text-transform: none; widows: 2; word-spacing: 0px; -webkit-text-stroke-width: 0px; white-space: normal; background-color: rgb(255, 255, 255); text-decoration-thickness: initial; text-decoration-style: initial; text-decoration-color: initial; display: inline !important; float: none;&quot;&gt;Yes&lt;/span&gt;" style="text;whiteSpace=wrap;html=1;" parent="1" vertex="1">
          <mxGeometry x="212.99666666666653" y="-3108.996666666667" width="48" height="36" as="geometry" />
        </mxCell>
        <mxCell id="N3lngPtNNW4ioqjcJuvQ-81" value="" style="endArrow=classic;html=1;rounded=0;entryX=0;entryY=0.5;entryDx=0;entryDy=0;exitX=1;exitY=0.5;exitDx=0;exitDy=0;" parent="1" source="N3lngPtNNW4ioqjcJuvQ-26" target="N3lngPtNNW4ioqjcJuvQ-57" edge="1">
          <mxGeometry width="50" height="50" relative="1" as="geometry">
            <mxPoint x="383" y="-2809" as="sourcePoint" />
            <mxPoint x="433" y="-2859" as="targetPoint" />
          </mxGeometry>
        </mxCell>
        <mxCell id="N3lngPtNNW4ioqjcJuvQ-83" value="" style="endArrow=none;html=1;rounded=0;entryX=0.5;entryY=1;entryDx=0;entryDy=0;" parent="1" target="N3lngPtNNW4ioqjcJuvQ-60" edge="1">
          <mxGeometry width="50" height="50" relative="1" as="geometry">
            <mxPoint x="818" y="-2875" as="sourcePoint" />
            <mxPoint x="433" y="-2859" as="targetPoint" />
          </mxGeometry>
        </mxCell>
        <mxCell id="N3lngPtNNW4ioqjcJuvQ-85" value="" style="endArrow=classic;html=1;rounded=0;entryX=1;entryY=0.5;entryDx=0;entryDy=0;" parent="1" target="N3lngPtNNW4ioqjcJuvQ-65" edge="1">
          <mxGeometry width="50" height="50" relative="1" as="geometry">
            <mxPoint x="818" y="-2875" as="sourcePoint" />
            <mxPoint x="433" y="-2859" as="targetPoint" />
          </mxGeometry>
        </mxCell>
        <mxCell id="N3lngPtNNW4ioqjcJuvQ-89" value="&lt;span style=&quot;color: rgb(0, 0, 0); font-family: Helvetica; font-size: 12px; font-style: normal; font-variant-ligatures: normal; font-variant-caps: normal; font-weight: 400; letter-spacing: normal; orphans: 2; text-align: center; text-indent: 0px; text-transform: none; widows: 2; word-spacing: 0px; -webkit-text-stroke-width: 0px; white-space: normal; background-color: rgb(255, 255, 255); text-decoration-thickness: initial; text-decoration-style: initial; text-decoration-color: initial; display: inline !important; float: none;&quot;&gt;Accept&amp;nbsp;&lt;/span&gt;" style="text;whiteSpace=wrap;html=1;" parent="1" vertex="1">
          <mxGeometry x="578.0033333333334" y="-3059" width="68" height="36" as="geometry" />
        </mxCell>
        <mxCell id="N3lngPtNNW4ioqjcJuvQ-92" value="&lt;span style=&quot;color: rgb(0, 0, 0); font-family: Helvetica; font-size: 12px; font-style: normal; font-variant-ligatures: normal; font-variant-caps: normal; font-weight: 400; letter-spacing: normal; orphans: 2; text-align: center; text-indent: 0px; text-transform: none; widows: 2; word-spacing: 0px; -webkit-text-stroke-width: 0px; white-space: normal; background-color: rgb(255, 255, 255); text-decoration-thickness: initial; text-decoration-style: initial; text-decoration-color: initial; display: inline !important; float: none;&quot;&gt;Reject&lt;/span&gt;" style="text;whiteSpace=wrap;html=1;" parent="1" vertex="1">
          <mxGeometry x="778" y="-3059" width="62" height="36" as="geometry" />
        </mxCell>
        <mxCell id="N3lngPtNNW4ioqjcJuvQ-93" value="Added the recommended songs" style="rounded=0;whiteSpace=wrap;html=1;" parent="1" vertex="1">
          <mxGeometry x="448" y="-3027" width="120" height="60" as="geometry" />
        </mxCell>
        <mxCell id="N3lngPtNNW4ioqjcJuvQ-94" value="" style="endArrow=classic;html=1;rounded=0;exitX=0.5;exitY=1;exitDx=0;exitDy=0;entryX=0.5;entryY=0;entryDx=0;entryDy=0;" parent="1" source="N3lngPtNNW4ioqjcJuvQ-93" target="N3lngPtNNW4ioqjcJuvQ-65" edge="1">
          <mxGeometry width="50" height="50" relative="1" as="geometry">
            <mxPoint x="383" y="-2942" as="sourcePoint" />
            <mxPoint x="433" y="-2992" as="targetPoint" />
          </mxGeometry>
        </mxCell>
        <mxCell id="6D_3fHBWP71r2AAPZ6jX-1" value="" style="endArrow=classic;html=1;rounded=0;" edge="1" parent="1" target="N3lngPtNNW4ioqjcJuvQ-95">
          <mxGeometry width="50" height="50" relative="1" as="geometry">
            <mxPoint x="104" y="-3506" as="sourcePoint" />
            <mxPoint x="104" y="-3359" as="targetPoint" />
          </mxGeometry>
        </mxCell>
        <mxCell id="N3lngPtNNW4ioqjcJuvQ-95" value="Start" style="ellipse;whiteSpace=wrap;html=1;aspect=fixed;" parent="1" vertex="1">
          <mxGeometry x="52" y="-3506" width="96" height="96" as="geometry" />
        </mxCell>
      </root>
    </mxGraphModel>
  </diagram>
</mxfile>
